<svg viewBox="0 0 512 512" fill="#7953D2" xmlns="http://www.w3.org/2000/svg">
  <g>
    <path d="M256 512C397.385 512 512 397.385 512 256C512 114.615 397.385 0 256 0C114.615 0 0 114.615 0 256C0 397.385 114.615 512 256 512Z" />
    <path
      fill="white"
      d="M209.657 118.811C209.662 109.297 207.179 99.949 202.458 91.7072C197.737 83.4654 190.944 76.6201 182.762 71.8596C174.58 67.0991 165.297 64.5911 155.847 64.5878C146.397 64.5845 137.113 67.0859 128.927 71.8407C120.742 76.5955 113.944 83.436 109.217 91.6745C104.491 99.913 102.001 109.259 102 118.773C101.999 128.288 104.485 137.634 109.21 145.874C113.934 154.114 120.73 160.956 128.914 165.714V342.874C118.652 348.839 110.632 358.046 106.097 369.068C101.563 380.09 100.767 392.31 103.834 403.833C106.901 415.356 113.659 425.539 123.06 432.801C132.461 440.064 143.979 444 155.828 444C167.678 444 179.196 440.064 188.597 432.801C197.998 425.539 204.756 415.356 207.823 403.833C210.89 392.31 210.094 380.09 205.559 369.068C201.025 358.046 193.005 348.839 182.743 342.874V165.714C190.921 160.96 197.714 154.123 202.438 145.891C207.162 137.658 209.652 128.319 209.657 118.811ZM155.828 91.7145C161.152 91.7145 166.355 93.3037 170.781 96.2811C175.207 99.2585 178.657 103.49 180.694 108.442C182.731 113.393 183.264 118.841 182.226 124.097C181.187 129.354 178.624 134.182 174.86 137.971C171.096 141.761 166.3 144.341 161.079 145.387C155.858 146.433 150.447 145.896 145.529 143.845C140.611 141.794 136.407 138.321 133.45 133.865C130.493 129.409 128.914 124.17 128.914 118.811C128.914 111.625 131.75 104.732 136.797 99.6509C141.845 94.5693 148.69 91.7145 155.828 91.7145ZM155.828 416.873C150.505 416.873 145.302 415.284 140.876 412.307C136.45 409.329 133 405.097 130.963 400.146C128.926 395.195 128.393 389.747 129.431 384.49C130.47 379.234 133.033 374.406 136.797 370.617C140.561 366.827 145.357 364.246 150.578 363.201C155.799 362.155 161.21 362.692 166.128 364.743C171.046 366.794 175.249 370.267 178.207 374.723C181.164 379.179 182.743 384.418 182.743 389.777C182.743 396.963 179.907 403.855 174.86 408.937C169.812 414.018 162.967 416.873 155.828 416.873Z"
    />
    <path
      fill="white"
      d="M400.024 342.855V169.564C400.002 148.906 391.805 129.1 377.232 114.493C362.66 99.8852 342.902 91.6688 322.293 91.6464H305.395V64.5446C305.393 61.8654 304.6 59.2467 303.114 57.0194C301.629 54.7922 299.518 53.0563 297.049 52.0312C294.579 51.006 291.862 50.7377 289.241 51.26C286.619 51.7824 284.211 53.072 282.32 54.9658L228.246 109.169C225.713 111.71 224.29 115.156 224.29 118.748C224.29 122.341 225.713 125.786 228.246 128.327L282.32 182.531C284.211 184.424 286.619 185.714 289.241 186.236C291.862 186.759 294.579 186.49 297.049 185.465C299.518 184.44 301.629 182.704 303.114 180.477C304.6 178.25 305.393 175.631 305.395 172.952V145.85H322.293C328.567 145.85 334.584 148.348 339.021 152.796C343.458 157.243 345.95 163.275 345.95 169.564V342.855C335.641 348.821 327.585 358.03 323.029 369.054C318.474 380.077 317.675 392.3 320.756 403.825C323.837 415.351 330.625 425.535 340.069 432.799C349.513 440.063 361.084 444 372.987 444C384.891 444 396.462 440.063 405.905 432.799C415.349 425.535 422.138 415.351 425.219 403.825C428.299 392.3 427.5 380.077 422.945 369.054C418.39 358.03 410.333 348.821 400.024 342.855ZM372.987 416.868C367.64 416.868 362.412 415.279 357.966 412.301C353.52 409.323 350.055 405.09 348.008 400.138C345.962 395.185 345.426 389.736 346.47 384.479C347.513 379.222 350.088 374.393 353.869 370.602C357.65 366.812 362.468 364.231 367.712 363.185C372.957 362.139 378.393 362.676 383.334 364.727C388.274 366.779 392.497 370.252 395.468 374.709C398.438 379.166 400.024 384.406 400.024 389.766C400.024 396.954 397.176 403.848 392.105 408.93C387.035 414.013 380.158 416.868 372.987 416.868Z"
    />
  </g>
</svg>
